<mxfile host="65bd71144e">
    <diagram id="Aw73OhMwDEGFA_TA9GCB" name="Page-1">
        <mxGraphModel dx="942" dy="478" grid="1" gridSize="10" guides="1" tooltips="1" connect="1" arrows="1" fold="1" page="1" pageScale="1" pageWidth="850" pageHeight="1100" math="0" shadow="0">
            <root>
                <mxCell id="0"/>
                <mxCell id="1" parent="0"/>
                <mxCell id="182" value="Employees" style="swimlane;horizontal=0;startSize=20;" vertex="1" parent="1">
                    <mxGeometry x="260" y="160" width="140" height="160" as="geometry">
                        <mxRectangle x="260" y="160" width="40" height="90" as="alternateBounds"/>
                    </mxGeometry>
                </mxCell>
                <mxCell id="183" value="employee_id: PK" style="text;html=1;whiteSpace=wrap;" vertex="1" parent="182">
                    <mxGeometry y="20" width="140" height="20" as="geometry"/>
                </mxCell>
                <mxCell id="184" value="name" style="text;html=1;whiteSpace=wrap;" vertex="1" parent="182">
                    <mxGeometry y="40" width="140" height="20" as="geometry"/>
                </mxCell>
                <mxCell id="185" value="position_id: FK" style="text;html=1;whiteSpace=wrap;" vertex="1" parent="182">
                    <mxGeometry y="60" width="140" height="20" as="geometry"/>
                </mxCell>
                <mxCell id="186" value="department" style="text;html=1;whiteSpace=wrap;" vertex="1" parent="182">
                    <mxGeometry y="80" width="140" height="20" as="geometry"/>
                </mxCell>
                <mxCell id="187" value="salary_id: FK" style="text;html=1;whiteSpace=wrap;" vertex="1" parent="182">
                    <mxGeometry y="100" width="140" height="20" as="geometry"/>
                </mxCell>
                <mxCell id="188" value="reports_to: FK" style="text;html=1;whiteSpace=wrap;" vertex="1" parent="182">
                    <mxGeometry y="120" width="140" height="20" as="geometry"/>
                </mxCell>
                <mxCell id="189" value="Users" style="swimlane;horizontal=0;startSize=20;" vertex="1" parent="1">
                    <mxGeometry x="440" y="40" width="140" height="140" as="geometry"/>
                </mxCell>
                <mxCell id="190" value="user_id: PK" style="text;html=1;whiteSpace=wrap;" vertex="1" parent="189">
                    <mxGeometry y="20" width="140" height="20" as="geometry"/>
                </mxCell>
                <mxCell id="191" value="employee_id: FK" style="text;html=1;whiteSpace=wrap;" vertex="1" parent="189">
                    <mxGeometry y="40" width="140" height="20" as="geometry"/>
                </mxCell>
                <mxCell id="192" value="username" style="text;html=1;whiteSpace=wrap;" vertex="1" parent="189">
                    <mxGeometry y="60" width="140" height="20" as="geometry"/>
                </mxCell>
                <mxCell id="193" value="password" style="text;html=1;whiteSpace=wrap;" vertex="1" parent="189">
                    <mxGeometry y="80" width="140" height="20" as="geometry"/>
                </mxCell>
                <mxCell id="194" value="user_auth_id" style="text;html=1;whiteSpace=wrap;" vertex="1" parent="189">
                    <mxGeometry y="100" width="140" height="20" as="geometry"/>
                </mxCell>
                <mxCell id="195" value="Positions" style="swimlane;horizontal=0;startSize=20;" vertex="1" parent="1">
                    <mxGeometry x="80" y="160" width="140" height="80" as="geometry"/>
                </mxCell>
                <mxCell id="196" value="position_id: PK" style="text;html=1;whiteSpace=wrap;" vertex="1" parent="195">
                    <mxGeometry y="20" width="140" height="20" as="geometry"/>
                </mxCell>
                <mxCell id="197" value="title" style="text;html=1;whiteSpace=wrap;" vertex="1" parent="195">
                    <mxGeometry y="40" width="140" height="20" as="geometry"/>
                </mxCell>
                <mxCell id="198" value="department" style="text;html=1;whiteSpace=wrap;" vertex="1" parent="195">
                    <mxGeometry y="60" width="140" height="20" as="geometry"/>
                </mxCell>
                <mxCell id="199" value="Salaries" style="swimlane;horizontal=0;startSize=20;" vertex="1" parent="1">
                    <mxGeometry x="80" y="360" width="140" height="80" as="geometry"/>
                </mxCell>
                <mxCell id="200" value="salary_id: PK" style="text;html=1;whiteSpace=wrap;" vertex="1" parent="199">
                    <mxGeometry y="20" width="140" height="20" as="geometry"/>
                </mxCell>
                <mxCell id="201" value="amount" style="text;html=1;whiteSpace=wrap;" vertex="1" parent="199">
                    <mxGeometry y="40" width="140" height="20" as="geometry"/>
                </mxCell>
                <mxCell id="202" value="effective_date" style="text;html=1;whiteSpace=wrap;" vertex="1" parent="199">
                    <mxGeometry y="60" width="140" height="20" as="geometry"/>
                </mxCell>
                <mxCell id="203" value="Bonus Records" style="swimlane;horizontal=0;startSize=20;" vertex="1" parent="1">
                    <mxGeometry x="440" y="160" width="140" height="80" as="geometry"/>
                </mxCell>
                <mxCell id="204" value="bonus_id: PK" style="text;html=1;whiteSpace=wrap;" vertex="1" parent="203">
                    <mxGeometry y="20" width="140" height="20" as="geometry"/>
                </mxCell>
                <mxCell id="205" value="employee_id: FK" style="text;html=1;whiteSpace=wrap;" vertex="1" parent="203">
                    <mxGeometry y="40" width="140" height="20" as="geometry"/>
                </mxCell>
                <mxCell id="206" value="amount" style="text;html=1;whiteSpace=wrap;" vertex="1" parent="203">
                    <mxGeometry y="60" width="140" height="20" as="geometry"/>
                </mxCell>
                <mxCell id="207" value="date" style="text;html=1;whiteSpace=wrap;" vertex="1" parent="203">
                    <mxGeometry y="80" width="140" height="20" as="geometry"/>
                </mxCell>
                <mxCell id="208" value="Merit Records" style="swimlane;horizontal=0;startSize=20;" vertex="1" parent="1">
                    <mxGeometry x="600" y="160" width="140" height="80" as="geometry"/>
                </mxCell>
                <mxCell id="209" value="merit_id: PK" style="text;html=1;whiteSpace=wrap;" vertex="1" parent="208">
                    <mxGeometry y="20" width="140" height="20" as="geometry"/>
                </mxCell>
                <mxCell id="210" value="employee_id: FK" style="text;html=1;whiteSpace=wrap;" vertex="1" parent="208">
                    <mxGeometry y="40" width="140" height="20" as="geometry"/>
                </mxCell>
                <mxCell id="211" value="rating" style="text;html=1;whiteSpace=wrap;" vertex="1" parent="208">
                    <mxGeometry y="60" width="140" height="20" as="geometry"/>
                </mxCell>
                <mxCell id="212" value="date" style="text;html=1;whiteSpace=wrap;" vertex="1" parent="208">
                    <mxGeometry y="80" width="140" height="20" as="geometry"/>
                </mxCell>
                <mxCell id="213" value="Evaluations" style="swimlane;horizontal=0;startSize=20;" vertex="1" parent="1">
                    <mxGeometry x="760" y="160" width="140" height="80" as="geometry"/>
                </mxCell>
                <mxCell id="214" value="evaluation_id: PK" style="text;html=1;whiteSpace=wrap;" vertex="1" parent="213">
                    <mxGeometry y="20" width="140" height="20" as="geometry"/>
                </mxCell>
                <mxCell id="215" value="employee_id: FK" style="text;html=1;whiteSpace=wrap;" vertex="1" parent="213">
                    <mxGeometry y="40" width="140" height="20" as="geometry"/>
                </mxCell>
                <mxCell id="216" value="score" style="text;html=1;whiteSpace=wrap;" vertex="1" parent="213">
                    <mxGeometry y="60" width="140" height="20" as="geometry"/>
                </mxCell>
                <mxCell id="217" value="date" style="text;html=1;whiteSpace=wrap;" vertex="1" parent="213">
                    <mxGeometry y="80" width="140" height="20" as="geometry"/>
                </mxCell>
                <mxCell id="218" value="Leave Cases" style="swimlane;horizontal=0;startSize=20;" vertex="1" parent="1">
                    <mxGeometry x="260" y="360" width="140" height="100" as="geometry"/>
                </mxCell>
                <mxCell id="219" value="leave_id: PK" style="text;html=1;whiteSpace=wrap;" vertex="1" parent="218">
                    <mxGeometry y="20" width="140" height="20" as="geometry"/>
                </mxCell>
                <mxCell id="220" value="employee_id: FK" style="text;html=1;whiteSpace=wrap;" vertex="1" parent="218">
                    <mxGeometry y="40" width="140" height="20" as="geometry"/>
                </mxCell>
                <mxCell id="221" value="leave_type_id: FK" style="text;html=1;whiteSpace=wrap;" vertex="1" parent="218">
                    <mxGeometry y="60" width="140" height="20" as="geometry"/>
                </mxCell>
                <mxCell id="222" value="start_date" style="text;html=1;whiteSpace=wrap;" vertex="1" parent="218">
                    <mxGeometry y="80" width="140" height="20" as="geometry"/>
                </mxCell>
                <mxCell id="223" value="end_date" style="text;html=1;whiteSpace=wrap;" vertex="1" parent="218">
                    <mxGeometry y="100" width="140" height="20" as="geometry"/>
                </mxCell>
                <mxCell id="224" value="Leave Types" style="swimlane;horizontal=0;startSize=20;" vertex="1" parent="1">
                    <mxGeometry x="420" y="360" width="140" height="80" as="geometry"/>
                </mxCell>
                <mxCell id="225" value="leave_type_id: PK" style="text;html=1;whiteSpace=wrap;" vertex="1" parent="224">
                    <mxGeometry y="20" width="140" height="20" as="geometry"/>
                </mxCell>
                <mxCell id="226" value="type_name" style="text;html=1;whiteSpace=wrap;" vertex="1" parent="224">
                    <mxGeometry y="40" width="140" height="20" as="geometry"/>
                </mxCell>
                <mxCell id="227" value="description" style="text;html=1;whiteSpace=wrap;" vertex="1" parent="224">
                    <mxGeometry y="60" width="140" height="20" as="geometry"/>
                </mxCell>
                <mxCell id="228" value="Approval Workflows" style="swimlane;horizontal=0;startSize=20;" vertex="1" parent="1">
                    <mxGeometry x="580" y="360" width="140" height="80" as="geometry"/>
                </mxCell>
                <mxCell id="229" value="workflow_id: PK" style="text;html=1;whiteSpace=wrap;" vertex="1" parent="228">
                    <mxGeometry y="20" width="140" height="20" as="geometry"/>
                </mxCell>
                <mxCell id="230" value="employee_id: FK" style="text;html=1;whiteSpace=wrap;" vertex="1" parent="228">
                    <mxGeometry y="40" width="140" height="20" as="geometry"/>
                </mxCell>
                <mxCell id="231" value="name" style="text;html=1;whiteSpace=wrap;" vertex="1" parent="228">
                    <mxGeometry y="60" width="140" height="20" as="geometry"/>
                </mxCell>
                <mxCell id="232" value="description" style="text;html=1;whiteSpace=wrap;" vertex="1" parent="228">
                    <mxGeometry y="80" width="140" height="20" as="geometry"/>
                </mxCell>
                <mxCell id="233" value="Operations" style="swimlane;horizontal=0;startSize=20;" vertex="1" parent="1">
                    <mxGeometry x="740" y="360" width="140" height="80" as="geometry"/>
                </mxCell>
                <mxCell id="234" value="operation_id: PK" style="text;html=1;whiteSpace=wrap;" vertex="1" parent="233">
                    <mxGeometry y="20" width="140" height="20" as="geometry"/>
                </mxCell>
                <mxCell id="235" value="responsible_employee_id: FK" style="text;html=1;whiteSpace=wrap;" vertex="1" parent="233">
                    <mxGeometry y="40" width="140" height="20" as="geometry"/>
                </mxCell>
                <mxCell id="236" value="name" style="text;html=1;whiteSpace=wrap;" vertex="1" parent="233">
                    <mxGeometry y="60" width="140" height="20" as="geometry"/>
                </mxCell>
                <mxCell id="237" value="description" style="text;html=1;whiteSpace=wrap;" vertex="1" parent="233">
                    <mxGeometry y="80" width="140" height="20" as="geometry"/>
                </mxCell>
                <mxCell id="238" value="Rules" style="swimlane;horizontal=0;startSize=20;" vertex="1" parent="1">
                    <mxGeometry x="260" y="520" width="140" height="80" as="geometry"/>
                </mxCell>
                <mxCell id="239" value="rule_id: PK" style="text;html=1;whiteSpace=wrap;" vertex="1" parent="238">
                    <mxGeometry y="20" width="140" height="20" as="geometry"/>
                </mxCell>
                <mxCell id="240" value="name" style="text;html=1;whiteSpace=wrap;" vertex="1" parent="238">
                    <mxGeometry y="40" width="140" height="20" as="geometry"/>
                </mxCell>
                <mxCell id="241" value="description" style="text;html=1;whiteSpace=wrap;" vertex="1" parent="238">
                    <mxGeometry y="60" width="140" height="20" as="geometry"/>
                </mxCell>
                <mxCell id="242" value="effective_date" style="text;html=1;whiteSpace=wrap;" vertex="1" parent="238">
                    <mxGeometry y="80" width="140" height="20" as="geometry"/>
                </mxCell>
                <mxCell id="243" value="Electronic Services" style="swimlane;horizontal=0;startSize=20;" vertex="1" parent="1">
                    <mxGeometry x="420" y="520" width="140" height="80" as="geometry"/>
                </mxCell>
                <mxCell id="244" value="service_id: PK" style="text;html=1;whiteSpace=wrap;" vertex="1" parent="243">
                    <mxGeometry y="20" width="140" height="20" as="geometry"/>
                </mxCell>
                <mxCell id="245" value="responsible_employee_id: FK" style="text;html=1;whiteSpace=wrap;" vertex="1" parent="243">
                    <mxGeometry y="40" width="140" height="20" as="geometry"/>
                </mxCell>
                <mxCell id="246" value="name" style="text;html=1;whiteSpace=wrap;" vertex="1" parent="243">
                    <mxGeometry y="60" width="140" height="20" as="geometry"/>
                </mxCell>
                <mxCell id="247" value="description" style="text;html=1;whiteSpace=wrap;" vertex="1" parent="243">
                    <mxGeometry y="80" width="140" height="20" as="geometry"/>
                </mxCell>
                <mxCell id="248" value="Documents" style="swimlane;horizontal=0;startSize=20;" vertex="1" parent="1">
                    <mxGeometry x="580" y="520" width="140" height="80" as="geometry"/>
                </mxCell>
                <mxCell id="249" value="document_id: PK" style="text;html=1;whiteSpace=wrap;" vertex="1" parent="248">
                    <mxGeometry y="20" width="140" height="20" as="geometry"/>
                </mxCell>
                <mxCell id="250" value="employee_id: FK" style="text;html=1;whiteSpace=wrap;" vertex="1" parent="248">
                    <mxGeometry y="40" width="140" height="20" as="geometry"/>
                </mxCell>
                <mxCell id="251" value="document_name" style="text;html=1;whiteSpace=wrap;" vertex="1" parent="248">
                    <mxGeometry y="60" width="140" height="20" as="geometry"/>
                </mxCell>
                <mxCell id="252" value="document_type" style="text;html=1;whiteSpace=wrap;" vertex="1" parent="248">
                    <mxGeometry y="80" width="140" height="20" as="geometry"/>
                </mxCell>
                <mxCell id="253" value="upload_date" style="text;html=1;whiteSpace=wrap;" vertex="1" parent="248">
                    <mxGeometry y="100" width="140" height="20" as="geometry"/>
                </mxCell>
                <mxCell id="254" value="Wellness" style="swimlane;horizontal=0;startSize=20;" vertex="1" parent="1">
                    <mxGeometry x="740" y="520" width="140" height="80" as="geometry"/>
                </mxCell>
                <mxCell id="255" value="wellness_id: PK" style="text;html=1;whiteSpace=wrap;" vertex="1" parent="254">
                    <mxGeometry y="20" width="140" height="20" as="geometry"/>
                </mxCell>
                <mxCell id="256" value="employee_id: FK" style="text;html=1;whiteSpace=wrap;" vertex="1" parent="254">
                    <mxGeometry y="40" width="140" height="20" as="geometry"/>
                </mxCell>
                <mxCell id="257" value="document_name" style="text;html=1;whiteSpace=wrap;" vertex="1" parent="254">
                    <mxGeometry y="60" width="140" height="20" as="geometry"/>
                </mxCell>
                <mxCell id="258" value="upload_date" style="text;html=1;whiteSpace=wrap;" vertex="1" parent="254">
                    <mxGeometry y="80" width="140" height="20" as="geometry"/>
                </mxCell>
                <mxCell id="259" edge="1" parent="1" source="182" target="189">
                    <mxGeometry relative="1" as="geometry"/>
                </mxCell>
                <mxCell id="260" edge="1" parent="1" source="182" target="203">
                    <mxGeometry relative="1" as="geometry"/>
                </mxCell>
                <mxCell id="261" edge="1" parent="1" source="182" target="208">
                    <mxGeometry relative="1" as="geometry"/>
                </mxCell>
                <mxCell id="262" edge="1" parent="1" source="182" target="213">
                    <mxGeometry relative="1" as="geometry"/>
                </mxCell>
                <mxCell id="263" edge="1" parent="1" source="182" target="218">
                    <mxGeometry relative="1" as="geometry"/>
                </mxCell>
                <mxCell id="264" edge="1" parent="1" source="218" target="224">
                    <mxGeometry relative="1" as="geometry"/>
                </mxCell>
                <mxCell id="265" edge="1" parent="1" source="182" target="228">
                    <mxGeometry relative="1" as="geometry"/>
                </mxCell>
                <mxCell id="266" edge="1" parent="1" source="182" target="233">
                    <mxGeometry relative="1" as="geometry"/>
                </mxCell>
                <mxCell id="267" edge="1" parent="1" source="182" target="243">
                    <mxGeometry relative="1" as="geometry"/>
                </mxCell>
                <mxCell id="268" edge="1" parent="1" source="182" target="248">
                    <mxGeometry relative="1" as="geometry"/>
                </mxCell>
                <mxCell id="269" edge="1" parent="1" source="182" target="254">
                    <mxGeometry relative="1" as="geometry"/>
                </mxCell>
                <mxCell id="270" edge="1" parent="1" source="182" target="199">
                    <mxGeometry relative="1" as="geometry"/>
                </mxCell>
                <mxCell id="271" edge="1" parent="1" source="182" target="195">
                    <mxGeometry relative="1" as="geometry"/>
                </mxCell>
            </root>
        </mxGraphModel>
    </diagram>
</mxfile>